<svg width="24" height="24" viewBox="0 0 24 24" fill="none" xmlns="http://www.w3.org/2000/svg">
<path d="M14 5.00001C14 5.5523 13.5523 6.00002 13 6.00002C12.4477 6.00002 12 5.5523 12 5.00001C12 4.44772 12.4477 4 13 4C13.5523 4 14 4.44772 14 5.00001Z" fill="#999999"/>
<path d="M14 3.00001C14 3.5523 13.5523 4.00002 13 4.00002C12.4477 4.00002 12 3.5523 12 3.00001C12 2.44772 12.4477 2 13 2C13.5523 2 14 2.44772 14 3.00001Z" fill="#999999"/>
<path d="M14 7.00001C14 7.5523 13.5523 8.00002 13 8.00002C12.4477 8.00002 12 7.5523 12 7.00001C12 6.44772 12.4477 6 13 6C13.5523 6 14 6.44772 14 7.00001Z" fill="#999999"/>
<path d="M14 9.00001C14 9.5523 13.5523 10 13 10C12.4477 10 12 9.5523 12 9.00001C12 8.44772 12.4477 8 13 8C13.5523 8 14 8.44772 14 9.00001Z" fill="#999999"/>
<path d="M20 9.00001C20 9.5523 19.5523 10 19 10C18.4477 10 18 9.5523 18 9.00001C18 8.44772 18.4477 8 19 8C19.5523 8 20 8.44772 20 9.00001Z" fill="#999999"/>
<path d="M22 9.00001C22 9.5523 21.5523 10 21 10C20.4477 10 20 9.5523 20 9.00001C20 8.44772 20.4477 8 21 8C21.5523 8 22 8.44772 22 9.00001Z" fill="#999999"/>
<path d="M14 11C14 11.5523 13.5523 12 13 12C12.4477 12 12 11.5523 12 11C12 10.4477 12.4477 10 13 10C13.5523 10 14 10.4477 14 11Z" fill="#999999"/>
<path d="M18 11C18 11.5523 17.5523 12 17 12C16.4477 12 16 11.5523 16 11C16 10.4477 16.4477 10 17 10C17.5523 10 18 10.4477 18 11Z" fill="#999999"/>
<path d="M20 11C20 11.5523 19.5523 12 19 12C18.4477 12 18 11.5523 18 11C18 10.4477 18.4477 10 19 10C19.5523 10 20 10.4477 20 11Z" fill="#999999"/>
<path d="M22 11C22 11.5523 21.5523 12 21 12C20.4477 12 20 11.5523 20 11C20 10.4477 20.4477 10 21 10C21.5523 10 22 10.4477 22 11Z" fill="#999999"/>
<path d="M14 13C14 13.5523 13.5523 14 13 14C12.4477 14 12 13.5523 12 13C12 12.4477 12.4477 12 13 12C13.5523 12 14 12.4477 14 13Z" fill="#999999"/>
<path d="M18 13C18 13.5523 17.5523 14 17 14C16.4477 14 16 13.5523 16 13C16 12.4477 16.4477 12 17 12C17.5523 12 18 12.4477 18 13Z" fill="#999999"/>
<path d="M20 13C20 13.5523 19.5523 14 19 14C18.4477 14 18 13.5523 18 13C18 12.4477 18.4477 12 19 12C19.5523 12 20 12.4477 20 13Z" fill="#999999"/>
<path d="M22 13C22 13.5523 21.5523 14 21 14C20.4477 14 20 13.5523 20 13C20 12.4477 20.4477 12 21 12C21.5523 12 22 12.4477 22 13Z" fill="#999999"/>
<path d="M14 15C14 15.5523 13.5523 16 13 16C12.4477 16 12 15.5523 12 15C12 14.4477 12.4477 14 13 14C13.5523 14 14 14.4477 14 15Z" fill="#999999"/>
<path d="M18 15C18 15.5523 17.5523 16 17 16C16.4477 16 16 15.5523 16 15C16 14.4477 16.4477 14 17 14C17.5523 14 18 14.4477 18 15Z" fill="#999999"/>
<path d="M20 15C20 15.5523 19.5523 16 19 16C18.4477 16 18 15.5523 18 15C18 14.4477 18.4477 14 19 14C19.5523 14 20 14.4477 20 15Z" fill="#999999"/>
<path d="M14 17C14 17.5523 13.5523 18 13 18C12.4477 18 12 17.5523 12 17C12 16.4477 12.4477 16 13 16C13.5523 16 14 16.4477 14 17Z" fill="#999999"/>
<path d="M18 17C18 17.5523 17.5523 18 17 18C16.4477 18 16 17.5523 16 17C16 16.4477 16.4477 16 17 16C17.5523 16 18 16.4477 18 17Z" fill="#999999"/>
<path d="M20 17C20 17.5523 19.5523 18 19 18C18.4477 18 18 17.5523 18 17C18 16.4477 18.4477 16 19 16C19.5523 16 20 16.4477 20 17Z" fill="#999999"/>
<path d="M14 19C14 19.5523 13.5523 20 13 20C12.4477 20 12 19.5523 12 19C12 18.4477 12.4477 18 13 18C13.5523 18 14 18.4477 14 19Z" fill="#999999"/>
<path d="M12 5.00001C12 5.5523 11.5523 6.00002 11 6.00002C10.4477 6.00002 10 5.5523 10 5.00001C10 4.44772 10.4477 4 11 4C11.5523 4 12 4.44772 12 5.00001Z" fill="#999999"/>
<path d="M12 3.00001C12 3.5523 11.5523 4.00002 11 4.00002C10.4477 4.00002 10 3.5523 10 3.00001C10 2.44772 10.4477 2 11 2C11.5523 2 12 2.44772 12 3.00001Z" fill="#999999"/>
<path d="M12 7.00001C12 7.5523 11.5523 8.00002 11 8.00002C10.4477 8.00002 10 7.5523 10 7.00001C10 6.44772 10.4477 6 11 6C11.5523 6 12 6.44772 12 7.00001Z" fill="#999999"/>
<path d="M12 9.00001C12 9.5523 11.5523 10 11 10C10.4477 10 10 9.5523 10 9.00001C10 8.44772 10.4477 8 11 8C11.5523 8 12 8.44772 12 9.00001Z" fill="#999999"/>
<path d="M12 11C12 11.5523 11.5523 12 11 12C10.4477 12 10 11.5523 10 11C10 10.4477 10.4477 10 11 10C11.5523 10 12 10.4477 12 11Z" fill="#999999"/>
<path d="M12 13C12 13.5523 11.5523 14 11 14C10.4477 14 10 13.5523 10 13C10 12.4477 10.4477 12 11 12C11.5523 12 12 12.4477 12 13Z" fill="#999999"/>
<path d="M12 15C12 15.5523 11.5523 16 11 16C10.4477 16 10 15.5523 10 15C10 14.4477 10.4477 14 11 14C11.5523 14 12 14.4477 12 15Z" fill="#999999"/>
<path d="M12 17C12 17.5523 11.5523 18 11 18C10.4477 18 10 17.5523 10 17C10 16.4477 10.4477 16 11 16C11.5523 16 12 16.4477 12 17Z" fill="#999999"/>
<path d="M12 19C12 19.5523 11.5523 20 11 20C10.4477 20 10 19.5523 10 19C10 18.4477 10.4477 18 11 18C11.5523 18 12 18.4477 12 19Z" fill="#999999"/>
<path d="M12 21C12 21.5523 11.5523 22 11 22C10.4477 22 10 21.5523 10 21C10 20.4477 10.4477 20 11 20C11.5523 20 12 20.4477 12 21Z" fill="#999999"/>
<path d="M10 7.00001C10 7.5523 9.5523 8.00002 9.00001 8.00002C8.44772 8.00002 8 7.5523 8 7.00001C8 6.44772 8.44772 6 9.00001 6C9.5523 6 10 6.44772 10 7.00001Z" fill="#999999"/>
<path d="M10 9.00001C10 9.5523 9.5523 10 9.00001 10C8.44772 10 8 9.5523 8 9.00001C8 8.44772 8.44772 8 9.00001 8C9.5523 8 10 8.44772 10 9.00001Z" fill="#999999"/>
<path d="M10 11C10 11.5523 9.5523 12 9.00001 12C8.44772 12 8 11.5523 8 11C8 10.4477 8.44772 10 9.00001 10C9.5523 10 10 10.4477 10 11Z" fill="#999999"/>
<path d="M8 11C8 11.5523 7.55228 12 7 12C6.44772 12 6 11.5523 6 11C6 10.4477 6.44772 10 7 10C7.55228 10 8 10.4477 8 11Z" fill="#999999"/>
<path d="M8 13C8 13.5523 7.55228 14 7 14C6.44772 14 6 13.5523 6 13C6 12.4477 6.44772 12 7 12C7.55228 12 8 12.4477 8 13Z" fill="#999999"/>
<path d="M8 15C8 15.5523 7.55228 16 7 16C6.44772 16 6 15.5523 6 15C6 14.4477 6.44772 14 7 14C7.55228 14 8 14.4477 8 15Z" fill="#999999"/>
<path d="M6.00021 15.0002C6.00021 15.5525 5.55249 16.0003 5.00019 16.0003C4.4479 16.0003 4.00018 15.5525 4.00018 15.0002C4.00018 14.448 4.4479 14.0002 5.00019 14.0002C5.55249 14.0002 6.00021 14.448 6.00021 15.0002Z" fill="#999999"/>
<path d="M8 17C8 17.5523 7.55228 18 7 18C6.44772 18 6 17.5523 6 17C6 16.4477 6.44772 16 7 16C7.55228 16 8 16.4477 8 17Z" fill="#999999"/>
<path d="M6.00002 17C6.00002 17.5523 5.5523 18 5.00001 18C4.44772 18 4 17.5523 4 17C4 16.4477 4.44772 16 5.00001 16C5.5523 16 6.00002 16.4477 6.00002 17Z" fill="#999999"/>
<path d="M8 19C8 19.5523 7.55228 20 7 20C6.44772 20 6 19.5523 6 19C6 18.4477 6.44772 18 7 18C7.55228 18 8 18.4477 8 19Z" fill="#999999"/>
<path d="M6.00021 18.9998C6.00021 19.5521 5.55249 19.9998 5.00019 19.9998C4.4479 19.9998 4.00018 19.5521 4.00018 18.9998C4.00018 18.4475 4.4479 17.9998 5.00019 17.9998C5.55249 17.9998 6.00021 18.4475 6.00021 18.9998Z" fill="#999999"/>
<path d="M4.00002 18.9998C4.00002 19.5521 3.5523 19.9998 3.00001 19.9998C2.44772 19.9998 2 19.5521 2 18.9998C2 18.4475 2.44772 17.9998 3.00001 17.9998C3.5523 17.9998 4.00002 18.4475 4.00002 18.9998Z" fill="#999999"/>
<path d="M8 21C8 21.5523 7.55228 22 7 22C6.44772 22 6 21.5523 6 21C6 20.4477 6.44772 20 7 20C7.55228 20 8 20.4477 8 21Z" fill="#999999"/>
<path d="M6.00021 21C6.00021 21.5523 5.55249 22 5.00019 22C4.4479 22 4.00018 21.5523 4.00018 21C4.00018 20.4477 4.4479 20 5.00019 20C5.55249 20 6.00021 20.4477 6.00021 21Z" fill="#999999"/>
<path d="M4.00002 21C4.00002 21.5523 3.5523 22 3.00001 22C2.44772 22 2 21.5523 2 21C2 20.4477 2.44772 20 3.00001 20C3.5523 20 4.00002 20.4477 4.00002 21Z" fill="#999999"/>
<path d="M10 13C10 13.5523 9.5523 14 9.00001 14C8.44772 14 8 13.5523 8 13C8 12.4477 8.44772 12 9.00001 12C9.5523 12 10 12.4477 10 13Z" fill="#999999"/>
<path d="M10 15C10 15.5523 9.5523 16 9.00001 16C8.44772 16 8 15.5523 8 15C8 14.4477 8.44772 14 9.00001 14C9.5523 14 10 14.4477 10 15Z" fill="#999999"/>
<path d="M10 17C10 17.5523 9.5523 18 9.00001 18C8.44772 18 8 17.5523 8 17C8 16.4477 8.44772 16 9.00001 16C9.5523 16 10 16.4477 10 17Z" fill="#999999"/>
<path d="M10 19C10 19.5523 9.5523 20 9.00001 20C8.44772 20 8 19.5523 8 19C8 18.4477 8.44772 18 9.00001 18C9.5523 18 10 18.4477 10 19Z" fill="#999999"/>
<path d="M10 21C10 21.5523 9.5523 22 9.00001 22C8.44772 22 8 21.5523 8 21C8 20.4477 8.44772 20 9.00001 20C9.5523 20 10 20.4477 10 21Z" fill="#999999"/>
</svg>
