<svg width="50" height="24" viewBox="0 0 50 24" fill="none" xmlns="http://www.w3.org/2000/svg">
<path d="M13 1C13 1.55228 12.5523 2 12 2C11.4477 2 11 1.55228 11 1C11 0.447715 11.4477 0 12 0C12.5523 0 13 0.447715 13 1Z" fill="#999999"/>
<path d="M13 3C13 3.55228 12.5523 4 12 4C11.4477 4 11 3.55228 11 3C11 2.44772 11.4477 2 12 2C12.5523 2 13 2.44772 13 3Z" fill="#999999"/>
<path d="M13 5C13 5.55228 12.5523 6 12 6C11.4477 6 11 5.55228 11 5C11 4.44772 11.4477 4 12 4C12.5523 4 13 4.44772 13 5Z" fill="#999999"/>
<path d="M11 5C11 5.55228 10.5523 6 10 6C9.44772 6 9 5.55228 9 5C9 4.44772 9.44772 4 10 4C10.5523 4 11 4.44772 11 5Z" fill="#999999"/>
<path d="M11 11C11 11.5523 10.5523 12 10 12C9.44772 12 9 11.5523 9 11C9 10.4477 9.44772 10 10 10C10.5523 10 11 10.4477 11 11Z" fill="#999999"/>
<path d="M11 13C11 13.5523 10.5523 14 10 14C9.44772 14 9 13.5523 9 13C9 12.4477 9.44772 12 10 12C10.5523 12 11 12.4477 11 13Z" fill="#999999"/>
<path d="M9 15C9 15.5523 8.55228 16 8 16C7.44772 16 7 15.5523 7 15C7 14.4477 7.44772 14 8 14C8.55228 14 9 14.4477 9 15Z" fill="#999999"/>
<path d="M17 15C17 15.5523 16.5523 16 16 16C15.4477 16 15 15.5523 15 15C15 14.4477 15.4477 14 16 14C16.5523 14 17 14.4477 17 15Z" fill="#999999"/>
<path d="M9 5C9 5.55228 8.55228 6 8 6C7.44772 6 7 5.55228 7 5C7 4.44772 7.44772 4 8 4C8.55228 4 9 4.44772 9 5Z" fill="#999999"/>
<path d="M9 11C9 11.5523 8.55228 12 8 12C7.44772 12 7 11.5523 7 11C7 10.4477 7.44772 10 8 10C8.55228 10 9 10.4477 9 11Z" fill="#999999"/>
<path d="M7 5C7 5.55228 6.55228 6 6 6C5.44772 6 5 5.55228 5 5C5 4.44772 5.44772 4 6 4C6.55228 4 7 4.44772 7 5Z" fill="#999999"/>
<path d="M7 11C7 11.5523 6.55228 12 6 12C5.44772 12 5 11.5523 5 11C5 10.4477 5.44772 10 6 10C6.55228 10 7 10.4477 7 11Z" fill="#999999"/>
<path d="M7 17C7 17.5523 6.55228 18 6 18C5.44772 18 5 17.5523 5 17C5 16.4477 5.44772 16 6 16C6.55228 16 7 16.4477 7 17Z" fill="#999999"/>
<path d="M5 5C5 5.55228 4.55228 6 4 6C3.44772 6 3 5.55228 3 5C3 4.44772 3.44772 4 4 4C4.55228 4 5 4.44772 5 5Z" fill="#999999"/>
<path d="M5 11C5 11.5523 4.55228 12 4 12C3.44772 12 3 11.5523 3 11C3 10.4477 3.44772 10 4 10C4.55228 10 5 10.4477 5 11Z" fill="#999999"/>
<path d="M3 11C3 11.5523 2.55228 12 2 12C1.44772 12 1 11.5523 1 11C1 10.4477 1.44772 10 2 10C2.55228 10 3 10.4477 3 11Z" fill="#999999"/>
<path d="M3 21C3 21.5523 2.55228 22 2 22C1.44772 22 1 21.5523 1 21C1 20.4477 1.44772 20 2 20C2.55228 20 3 20.4477 3 21Z" fill="#999999"/>
<path d="M15 5C15 5.55228 14.5523 6 14 6C13.4477 6 13 5.55228 13 5C13 4.44772 13.4477 4 14 4C14.5523 4 15 4.44772 15 5Z" fill="#999999"/>
<path d="M15 11C15 11.5523 14.5523 12 14 12C13.4477 12 13 11.5523 13 11C13 10.4477 13.4477 10 14 10C14.5523 10 15 10.4477 15 11Z" fill="#999999"/>
<path d="M15 13C15 13.5523 14.5523 14 14 14C13.4477 14 13 13.5523 13 13C13 12.4477 13.4477 12 14 12C14.5523 12 15 12.4477 15 13Z" fill="#999999"/>
<path d="M17 5C17 5.55228 16.5523 6 16 6C15.4477 6 15 5.55228 15 5C15 4.44772 15.4477 4 16 4C16.5523 4 17 4.44772 17 5Z" fill="#999999"/>
<path d="M17 11C17 11.5523 16.5523 12 16 12C15.4477 12 15 11.5523 15 11C15 10.4477 15.4477 10 16 10C16.5523 10 17 10.4477 17 11Z" fill="#999999"/>
<path d="M19 5C19 5.55228 18.5523 6 18 6C17.4477 6 17 5.55228 17 5C17 4.44772 17.4477 4 18 4C18.5523 4 19 4.44772 19 5Z" fill="#999999"/>
<path d="M19 11C19 11.5523 18.5523 12 18 12C17.4477 12 17 11.5523 17 11C17 10.4477 17.4477 10 18 10C18.5523 10 19 10.4477 19 11Z" fill="#999999"/>
<path d="M19 17C19 17.5523 18.5523 18 18 18C17.4477 18 17 17.5523 17 17C17 16.4477 17.4477 16 18 16C18.5523 16 19 16.4477 19 17Z" fill="#999999"/>
<path d="M21 5C21 5.55228 20.5523 6 20 6C19.4477 6 19 5.55228 19 5C19 4.44772 19.4477 4 20 4C20.5523 4 21 4.44772 21 5Z" fill="#999999"/>
<path d="M21 11C21 11.5523 20.5523 12 20 12C19.4477 12 19 11.5523 19 11C19 10.4477 19.4477 10 20 10C20.5523 10 21 10.4477 21 11Z" fill="#999999"/>
<path d="M21 19C21 19.5523 20.5523 20 20 20C19.4477 20 19 19.5523 19 19C19 18.4477 19.4477 18 20 18C20.5523 18 21 18.4477 21 19Z" fill="#999999"/>
<path d="M23 11C23 11.5523 22.5523 12 22 12C21.4477 12 21 11.5523 21 11C21 10.4477 21.4477 10 22 10C22.5523 10 23 10.4477 23 11Z" fill="#999999"/>
<path d="M23 21C23 21.5523 22.5523 22 22 22C21.4477 22 21 21.5523 21 21C21 20.4477 21.4477 20 22 20C22.5523 20 23 20.4477 23 21Z" fill="#999999"/>
<path d="M13 7C13 7.55228 12.5523 8 12 8C11.4477 8 11 7.55228 11 7C11 6.44772 11.4477 6 12 6C12.5523 6 13 6.44772 13 7Z" fill="#999999"/>
<path d="M13 9C13 9.55228 12.5523 10 12 10C11.4477 10 11 9.55228 11 9C11 8.44772 11.4477 8 12 8C12.5523 8 13 8.44772 13 9Z" fill="#999999"/>
<path d="M13 11C13 11.5523 12.5523 12 12 12C11.4477 12 11 11.5523 11 11C11 10.4477 11.4477 10 12 10C12.5523 10 13 10.4477 13 11Z" fill="#999999"/>
<path d="M13 13C13 13.5523 12.5523 14 12 14C11.4477 14 11 13.5523 11 13C11 12.4477 11.4477 12 12 12C12.5523 12 13 12.4477 13 13Z" fill="#999999"/>
<path d="M13 15C13 15.5523 12.5523 16 12 16C11.4477 16 11 15.5523 11 15C11 14.4477 11.4477 14 12 14C12.5523 14 13 14.4477 13 15Z" fill="#999999"/>
<path d="M13 17C13 17.5523 12.5523 18 12 18C11.4477 18 11 17.5523 11 17C11 16.4477 11.4477 16 12 16C12.5523 16 13 16.4477 13 17Z" fill="#999999"/>
<path d="M13 19C13 19.5523 12.5523 20 12 20C11.4477 20 11 19.5523 11 19C11 18.4477 11.4477 18 12 18C12.5523 18 13 18.4477 13 19Z" fill="#999999"/>
<path d="M5 19C5 19.5523 4.55228 20 4 20C3.44772 20 3 19.5523 3 19C3 18.4477 3.44772 18 4 18C4.55228 18 5 18.4477 5 19Z" fill="#999999"/>
<path d="M13 21C13 21.5523 12.5523 22 12 22C11.4477 22 11 21.5523 11 21C11 20.4477 11.4477 20 12 20C12.5523 20 13 20.4477 13 21Z" fill="#999999"/>
<path d="M13 23C13 23.5523 12.5523 24 12 24C11.4477 24 11 23.5523 11 23C11 22.4477 11.4477 22 12 22C12.5523 22 13 22.4477 13 23Z" fill="#999999"/>
<path d="M39 1C39 1.55228 38.5523 2 38 2C37.4477 2 37 1.55228 37 1C37 0.447715 37.4477 0 38 0C38.5523 0 39 0.447715 39 1Z" fill="#999999"/>
<path d="M39 3C39 3.55228 38.5523 4 38 4C37.4477 4 37 3.55228 37 3C37 2.44772 37.4477 2 38 2C38.5523 2 39 2.44772 39 3Z" fill="#999999"/>
<path d="M39 5C39 5.55228 38.5523 6 38 6C37.4477 6 37 5.55228 37 5C37 4.44772 37.4477 4 38 4C38.5523 4 39 4.44772 39 5Z" fill="#999999"/>
<path d="M37 3C37 3.55228 36.5523 4 36 4C35.4477 4 35 3.55228 35 3C35 2.44772 35.4477 2 36 2C36.5523 2 37 2.44772 37 3Z" fill="#999999"/>
<path d="M37 11C37 11.5523 36.5523 12 36 12C35.4477 12 35 11.5523 35 11C35 10.4477 35.4477 10 36 10C36.5523 10 37 10.4477 37 11Z" fill="#999999"/>
<path d="M37 13C37 13.5523 36.5523 14 36 14C35.4477 14 35 13.5523 35 13C35 12.4477 35.4477 12 36 12C36.5523 12 37 12.4477 37 13Z" fill="#999999"/>
<path d="M37 15C37 15.5523 36.5523 16 36 16C35.4477 16 35 15.5523 35 15C35 14.4477 35.4477 14 36 14C36.5523 14 37 14.4477 37 15Z" fill="#999999"/>
<path d="M41 15C41 15.5523 40.5523 16 40 16C39.4477 16 39 15.5523 39 15C39 14.4477 39.4477 14 40 14C40.5523 14 41 14.4477 41 15Z" fill="#999999"/>
<path d="M35 3C35 3.55228 34.5523 4 34 4C33.4477 4 33 3.55228 33 3C33 2.44772 33.4477 2 34 2C34.5523 2 35 2.44772 35 3Z" fill="#999999"/>
<path d="M35 13C35 13.5523 34.5523 14 34 14C33.4477 14 33 13.5523 33 13C33 12.4477 33.4477 12 34 12C34.5523 12 35 12.4477 35 13Z" fill="#999999"/>
<path d="M33 3C33 3.55228 32.5523 4 32 4C31.4477 4 31 3.55228 31 3C31 2.44772 31.4477 2 32 2C32.5523 2 33 2.44772 33 3Z" fill="#999999"/>
<path d="M33 13C33 13.5523 32.5523 14 32 14C31.4477 14 31 13.5523 31 13C31 12.4477 31.4477 12 32 12C32.5523 12 33 12.4477 33 13Z" fill="#999999"/>
<path d="M33 9C33 9.55228 32.5523 10 32 10C31.4477 10 31 9.55228 31 9C31 8.44772 31.4477 8 32 8C32.5523 8 33 8.44772 33 9Z" fill="#999999"/>
<path d="M35 17C35 17.5523 34.5523 18 34 18C33.4477 18 33 17.5523 33 17C33 16.4477 33.4477 16 34 16C34.5523 16 35 16.4477 35 17Z" fill="#999999"/>
<path d="M31 3C31 3.55228 30.5523 4 30 4C29.4477 4 29 3.55228 29 3C29 2.44772 29.4477 2 30 2C30.5523 2 31 2.44772 31 3Z" fill="#999999"/>
<path d="M31 13C31 13.5523 30.5523 14 30 14C29.4477 14 29 13.5523 29 13C29 12.4477 29.4477 12 30 12C30.5523 12 31 12.4477 31 13Z" fill="#999999"/>
<path d="M31 7C31 7.55228 30.5523 8 30 8C29.4477 8 29 7.55228 29 7C29 6.44772 29.4477 6 30 6C30.5523 6 31 6.44772 31 7Z" fill="#999999"/>
<path d="M29 13C29 13.5523 28.5523 14 28 14C27.4477 14 27 13.5523 27 13C27 12.4477 27.4477 12 28 12C28.5523 12 29 12.4477 29 13Z" fill="#999999"/>
<path d="M29 23C29 23.5523 28.5523 24 28 24C27.4477 24 27 23.5523 27 23C27 22.4477 27.4477 22 28 22C28.5523 22 29 22.4477 29 23Z" fill="#999999"/>
<path d="M31 21C31 21.5523 30.5523 22 30 22C29.4477 22 29 21.5523 29 21C29 20.4477 29.4477 20 30 20C30.5523 20 31 20.4477 31 21Z" fill="#999999"/>
<path d="M41 3C41 3.55228 40.5523 4 40 4C39.4477 4 39 3.55228 39 3C39 2.44772 39.4477 2 40 2C40.5523 2 41 2.44772 41 3Z" fill="#999999"/>
<path d="M41 11C41 11.5523 40.5523 12 40 12C39.4477 12 39 11.5523 39 11C39 10.4477 39.4477 10 40 10C40.5523 10 41 10.4477 41 11Z" fill="#999999"/>
<path d="M41 13C41 13.5523 40.5523 14 40 14C39.4477 14 39 13.5523 39 13C39 12.4477 39.4477 12 40 12C40.5523 12 41 12.4477 41 13Z" fill="#999999"/>
<path d="M43 3C43 3.55228 42.5523 4 42 4C41.4477 4 41 3.55228 41 3C41 2.44772 41.4477 2 42 2C42.5523 2 43 2.44772 43 3Z" fill="#999999"/>
<path d="M43 13C43 13.5523 42.5523 14 42 14C41.4477 14 41 13.5523 41 13C41 12.4477 41.4477 12 42 12C42.5523 12 43 12.4477 43 13Z" fill="#999999"/>
<path d="M45 3C45 3.55228 44.5523 4 44 4C43.4477 4 43 3.55228 43 3C43 2.44772 43.4477 2 44 2C44.5523 2 45 2.44772 45 3Z" fill="#999999"/>
<path d="M45 13C45 13.5523 44.5523 14 44 14C43.4477 14 43 13.5523 43 13C43 12.4477 43.4477 12 44 12C44.5523 12 45 12.4477 45 13Z" fill="#999999"/>
<path d="M45 9C45 9.55228 44.5523 10 44 10C43.4477 10 43 9.55228 43 9C43 8.44772 43.4477 8 44 8C44.5523 8 45 8.44772 45 9Z" fill="#999999"/>
<path d="M43 17C43 17.5523 42.5523 18 42 18C41.4477 18 41 17.5523 41 17C41 16.4477 41.4477 16 42 16C42.5523 16 43 16.4477 43 17Z" fill="#999999"/>
<path d="M47 3C47 3.55228 46.5523 4 46 4C45.4477 4 45 3.55228 45 3C45 2.44772 45.4477 2 46 2C46.5523 2 47 2.44772 47 3Z" fill="#999999"/>
<path d="M47 13C47 13.5523 46.5523 14 46 14C45.4477 14 45 13.5523 45 13C45 12.4477 45.4477 12 46 12C46.5523 12 47 12.4477 47 13Z" fill="#999999"/>
<path d="M47 7C47 7.55228 46.5523 8 46 8C45.4477 8 45 7.55228 45 7C45 6.44772 45.4477 6 46 6C46.5523 6 47 6.44772 47 7Z" fill="#999999"/>
<path d="M45 19C45 19.5523 44.5523 20 44 20C43.4477 20 43 19.5523 43 19C43 18.4477 43.4477 18 44 18C44.5523 18 45 18.4477 45 19Z" fill="#999999"/>
<path d="M49 13C49 13.5523 48.5523 14 48 14C47.4477 14 47 13.5523 47 13C47 12.4477 47.4477 12 48 12C48.5523 12 49 12.4477 49 13Z" fill="#999999"/>
<path d="M49 23C49 23.5523 48.5523 24 48 24C47.4477 24 47 23.5523 47 23C47 22.4477 47.4477 22 48 22C48.5523 22 49 22.4477 49 23Z" fill="#999999"/>
<path d="M47 21C47 21.5523 46.5523 22 46 22C45.4477 22 45 21.5523 45 21C45 20.4477 45.4477 20 46 20C46.5523 20 47 20.4477 47 21Z" fill="#999999"/>
<path d="M39 7C39 7.55228 38.5523 8 38 8C37.4477 8 37 7.55228 37 7C37 6.44772 37.4477 6 38 6C38.5523 6 39 6.44772 39 7Z" fill="#999999"/>
<path d="M39 9C39 9.55228 38.5523 10 38 10C37.4477 10 37 9.55228 37 9C37 8.44772 37.4477 8 38 8C38.5523 8 39 8.44772 39 9Z" fill="#999999"/>
<path d="M39 11C39 11.5523 38.5523 12 38 12C37.4477 12 37 11.5523 37 11C37 10.4477 37.4477 10 38 10C38.5523 10 39 10.4477 39 11Z" fill="#999999"/>
<path d="M39 13C39 13.5523 38.5523 14 38 14C37.4477 14 37 13.5523 37 13C37 12.4477 37.4477 12 38 12C38.5523 12 39 12.4477 39 13Z" fill="#999999"/>
<path d="M39 15C39 15.5523 38.5523 16 38 16C37.4477 16 37 15.5523 37 15C37 14.4477 37.4477 14 38 14C38.5523 14 39 14.4477 39 15Z" fill="#999999"/>
<path d="M39 17C39 17.5523 38.5523 18 38 18C37.4477 18 37 17.5523 37 17C37 16.4477 37.4477 16 38 16C38.5523 16 39 16.4477 39 17Z" fill="#999999"/>
<path d="M39 19C39 19.5523 38.5523 20 38 20C37.4477 20 37 19.5523 37 19C37 18.4477 37.4477 18 38 18C38.5523 18 39 18.4477 39 19Z" fill="#999999"/>
<path d="M33 19C33 19.5523 32.5523 20 32 20C31.4477 20 31 19.5523 31 19C31 18.4477 31.4477 18 32 18C32.5523 18 33 18.4477 33 19Z" fill="#999999"/>
<path d="M39 21C39 21.5523 38.5523 22 38 22C37.4477 22 37 21.5523 37 21C37 20.4477 37.4477 20 38 20C38.5523 20 39 20.4477 39 21Z" fill="#999999"/>
<path d="M39 23C39 23.5523 38.5523 24 38 24C37.4477 24 37 23.5523 37 23C37 22.4477 37.4477 22 38 22C38.5523 22 39 22.4477 39 23Z" fill="#999999"/>
</svg>
