<svg width="26" height="26" viewBox="0 0 26 26" fill="none" xmlns="http://www.w3.org/2000/svg">
<path d="M12 2C12 2.55228 11.5523 3 11 3C10.4477 3 10 2.55228 10 2C10 1.44772 10.4477 1 11 1C11.5523 1 12 1.44772 12 2Z" fill="#999999"/>
<path d="M12 4C12 4.55228 11.5523 5 11 5C10.4477 5 10 4.55228 10 4C10 3.44772 10.4477 3 11 3C11.5523 3 12 3.44772 12 4Z" fill="#999999"/>
<path d="M12 6C12 6.55228 11.5523 7 11 7C10.4477 7 10 6.55228 10 6C10 5.44772 10.4477 5 11 5C11.5523 5 12 5.44772 12 6Z" fill="#999999"/>
<path d="M10 6C10 6.55228 9.55228 7 9 7C8.44772 7 8 6.55228 8 6C8 5.44772 8.44772 5 9 5C9.55228 5 10 5.44772 10 6Z" fill="#999999"/>
<path d="M10 12C10 12.5523 9.55228 13 9 13C8.44772 13 8 12.5523 8 12C8 11.4477 8.44772 11 9 11C9.55228 11 10 11.4477 10 12Z" fill="#999999"/>
<path d="M10 14C10 14.5523 9.55228 15 9 15C8.44772 15 8 14.5523 8 14C8 13.4477 8.44772 13 9 13C9.55228 13 10 13.4477 10 14Z" fill="#999999"/>
<path d="M8 16C8 16.5523 7.55228 17 7 17C6.44772 17 6 16.5523 6 16C6 15.4477 6.44772 15 7 15C7.55228 15 8 15.4477 8 16Z" fill="#999999"/>
<path d="M8 6C8 6.55228 7.55228 7 7 7C6.44772 7 6 6.55228 6 6C6 5.44772 6.44772 5 7 5C7.55228 5 8 5.44772 8 6Z" fill="#999999"/>
<path d="M8 12C8 12.5523 7.55228 13 7 13C6.44772 13 6 12.5523 6 12C6 11.4477 6.44772 11 7 11C7.55228 11 8 11.4477 8 12Z" fill="#999999"/>
<path d="M6 6C6 6.55228 5.55228 7 5 7C4.44772 7 4 6.55228 4 6C4 5.44772 4.44772 5 5 5C5.55228 5 6 5.44772 6 6Z" fill="#999999"/>
<path d="M6 12C6 12.5523 5.55228 13 5 13C4.44772 13 4 12.5523 4 12C4 11.4477 4.44772 11 5 11C5.55228 11 6 11.4477 6 12Z" fill="#999999"/>
<path d="M6 18C6 18.5523 5.55228 19 5 19C4.44772 19 4 18.5523 4 18C4 17.4477 4.44772 17 5 17C5.55228 17 6 17.4477 6 18Z" fill="#999999"/>
<path d="M4 6C4 6.55228 3.55228 7 3 7C2.44772 7 2 6.55228 2 6C2 5.44772 2.44772 5 3 5C3.55228 5 4 5.44772 4 6Z" fill="#999999"/>
<path d="M4 12C4 12.5523 3.55228 13 3 13C2.44772 13 2 12.5523 2 12C2 11.4477 2.44772 11 3 11C3.55228 11 4 11.4477 4 12Z" fill="#999999"/>
<path d="M2 12C2 12.5523 1.55228 13 1 13C0.447715 13 0 12.5523 0 12C0 11.4477 0.447715 11 1 11C1.55228 11 2 11.4477 2 12Z" fill="#999999"/>
<path d="M2 22C2 22.5523 1.55228 23 1 23C0.447715 23 0 22.5523 0 22C0 21.4477 0.447715 21 1 21C1.55228 21 2 21.4477 2 22Z" fill="#999999"/>
<path d="M12 8C12 8.55228 11.5523 9 11 9C10.4477 9 10 8.55228 10 8C10 7.44772 10.4477 7 11 7C11.5523 7 12 7.44772 12 8Z" fill="#999999"/>
<path d="M12 10C12 10.5523 11.5523 11 11 11C10.4477 11 10 10.5523 10 10C10 9.44772 10.4477 9 11 9C11.5523 9 12 9.44772 12 10Z" fill="#999999"/>
<path d="M12 12C12 12.5523 11.5523 13 11 13C10.4477 13 10 12.5523 10 12C10 11.4477 10.4477 11 11 11C11.5523 11 12 11.4477 12 12Z" fill="#999999"/>
<path d="M12 14C12 14.5523 11.5523 15 11 15C10.4477 15 10 14.5523 10 14C10 13.4477 10.4477 13 11 13C11.5523 13 12 13.4477 12 14Z" fill="#999999"/>
<path d="M12 16C12 16.5523 11.5523 17 11 17C10.4477 17 10 16.5523 10 16C10 15.4477 10.4477 15 11 15C11.5523 15 12 15.4477 12 16Z" fill="#999999"/>
<path d="M12 18C12 18.5523 11.5523 19 11 19C10.4477 19 10 18.5523 10 18C10 17.4477 10.4477 17 11 17C11.5523 17 12 17.4477 12 18Z" fill="#999999"/>
<path d="M12 20C12 20.5523 11.5523 21 11 21C10.4477 21 10 20.5523 10 20C10 19.4477 10.4477 19 11 19C11.5523 19 12 19.4477 12 20Z" fill="#999999"/>
<path d="M4 20C4 20.5523 3.55228 21 3 21C2.44772 21 2 20.5523 2 20C2 19.4477 2.44772 19 3 19C3.55228 19 4 19.4477 4 20Z" fill="#999999"/>
<path d="M12 22C12 22.5523 11.5523 23 11 23C10.4477 23 10 22.5523 10 22C10 21.4477 10.4477 21 11 21C11.5523 21 12 21.4477 12 22Z" fill="#999999"/>
<path d="M12 24C12 24.5523 11.5523 25 11 25C10.4477 25 10 24.5523 10 24C10 23.4477 10.4477 23 11 23C11.5523 23 12 23.4477 12 24Z" fill="#999999"/>
<path d="M16 2C16 2.55228 15.5523 3 15 3C14.4477 3 14 2.55228 14 2C14 1.44772 14.4477 1 15 1C15.5523 1 16 1.44772 16 2Z" fill="#999999"/>
<path d="M16 4C16 4.55228 15.5523 5 15 5C14.4477 5 14 4.55228 14 4C14 3.44772 14.4477 3 15 3C15.5523 3 16 3.44772 16 4Z" fill="#999999"/>
<path d="M16 6C16 6.55228 15.5523 7 15 7C14.4477 7 14 6.55228 14 6C14 5.44772 14.4477 5 15 5C15.5523 5 16 5.44772 16 6Z" fill="#999999"/>
<path d="M18 16C18 16.5523 17.5523 17 17 17C16.4477 17 16 16.5523 16 16C16 15.4477 16.4477 15 17 15C17.5523 15 18 15.4477 18 16Z" fill="#999999"/>
<path d="M18 4C18 4.55228 17.5523 5 17 5C16.4477 5 16 4.55228 16 4C16 3.44772 16.4477 3 17 3C17.5523 3 18 3.44772 18 4Z" fill="#999999"/>
<path d="M18 12C18 12.5523 17.5523 13 17 13C16.4477 13 16 12.5523 16 12C16 11.4477 16.4477 11 17 11C17.5523 11 18 11.4477 18 12Z" fill="#999999"/>
<path d="M18 14C18 14.5523 17.5523 15 17 15C16.4477 15 16 14.5523 16 14C16 13.4477 16.4477 13 17 13C17.5523 13 18 13.4477 18 14Z" fill="#999999"/>
<path d="M20 4C20 4.55228 19.5523 5 19 5C18.4477 5 18 4.55228 18 4C18 3.44772 18.4477 3 19 3C19.5523 3 20 3.44772 20 4Z" fill="#999999"/>
<path d="M20 14C20 14.5523 19.5523 15 19 15C18.4477 15 18 14.5523 18 14C18 13.4477 18.4477 13 19 13C19.5523 13 20 13.4477 20 14Z" fill="#999999"/>
<path d="M22 4C22 4.55228 21.5523 5 21 5C20.4477 5 20 4.55228 20 4C20 3.44772 20.4477 3 21 3C21.5523 3 22 3.44772 22 4Z" fill="#999999"/>
<path d="M22 14C22 14.5523 21.5523 15 21 15C20.4477 15 20 14.5523 20 14C20 13.4477 20.4477 13 21 13C21.5523 13 22 13.4477 22 14Z" fill="#999999"/>
<path d="M22 10C22 10.5523 21.5523 11 21 11C20.4477 11 20 10.5523 20 10C20 9.44772 20.4477 9 21 9C21.5523 9 22 9.44772 22 10Z" fill="#999999"/>
<path d="M20 18C20 18.5523 19.5523 19 19 19C18.4477 19 18 18.5523 18 18C18 17.4477 18.4477 17 19 17C19.5523 17 20 17.4477 20 18Z" fill="#999999"/>
<path d="M24 4C24 4.55228 23.5523 5 23 5C22.4477 5 22 4.55228 22 4C22 3.44772 22.4477 3 23 3C23.5523 3 24 3.44772 24 4Z" fill="#999999"/>
<path d="M24 14C24 14.5523 23.5523 15 23 15C22.4477 15 22 14.5523 22 14C22 13.4477 22.4477 13 23 13C23.5523 13 24 13.4477 24 14Z" fill="#999999"/>
<path d="M24 8C24 8.55228 23.5523 9 23 9C22.4477 9 22 8.55228 22 8C22 7.44772 22.4477 7 23 7C23.5523 7 24 7.44772 24 8Z" fill="#999999"/>
<path d="M22 20C22 20.5523 21.5523 21 21 21C20.4477 21 20 20.5523 20 20C20 19.4477 20.4477 19 21 19C21.5523 19 22 19.4477 22 20Z" fill="#999999"/>
<path d="M26 14C26 14.5523 25.5523 15 25 15C24.4477 15 24 14.5523 24 14C24 13.4477 24.4477 13 25 13C25.5523 13 26 13.4477 26 14Z" fill="#999999"/>
<path d="M26 24C26 24.5523 25.5523 25 25 25C24.4477 25 24 24.5523 24 24C24 23.4477 24.4477 23 25 23C25.5523 23 26 23.4477 26 24Z" fill="#999999"/>
<path d="M24 22C24 22.5523 23.5523 23 23 23C22.4477 23 22 22.5523 22 22C22 21.4477 22.4477 21 23 21C23.5523 21 24 21.4477 24 22Z" fill="#999999"/>
<path d="M16 8C16 8.55228 15.5523 9 15 9C14.4477 9 14 8.55228 14 8C14 7.44772 14.4477 7 15 7C15.5523 7 16 7.44772 16 8Z" fill="#999999"/>
<path d="M16 10C16 10.5523 15.5523 11 15 11C14.4477 11 14 10.5523 14 10C14 9.44772 14.4477 9 15 9C15.5523 9 16 9.44772 16 10Z" fill="#999999"/>
<path d="M16 12C16 12.5523 15.5523 13 15 13C14.4477 13 14 12.5523 14 12C14 11.4477 14.4477 11 15 11C15.5523 11 16 11.4477 16 12Z" fill="#999999"/>
<path d="M16 14C16 14.5523 15.5523 15 15 15C14.4477 15 14 14.5523 14 14C14 13.4477 14.4477 13 15 13C15.5523 13 16 13.4477 16 14Z" fill="#999999"/>
<path d="M16 16C16 16.5523 15.5523 17 15 17C14.4477 17 14 16.5523 14 16C14 15.4477 14.4477 15 15 15C15.5523 15 16 15.4477 16 16Z" fill="#999999"/>
<path d="M16 18C16 18.5523 15.5523 19 15 19C14.4477 19 14 18.5523 14 18C14 17.4477 14.4477 17 15 17C15.5523 17 16 17.4477 16 18Z" fill="#999999"/>
<path d="M16 20C16 20.5523 15.5523 21 15 21C14.4477 21 14 20.5523 14 20C14 19.4477 14.4477 19 15 19C15.5523 19 16 19.4477 16 20Z" fill="#999999"/>
<path d="M16 22C16 22.5523 15.5523 23 15 23C14.4477 23 14 22.5523 14 22C14 21.4477 14.4477 21 15 21C15.5523 21 16 21.4477 16 22Z" fill="#999999"/>
<path d="M16 24C16 24.5523 15.5523 25 15 25C14.4477 25 14 24.5523 14 24C14 23.4477 14.4477 23 15 23C15.5523 23 16 23.4477 16 24Z" fill="#999999"/>
</svg>
